<mxfile host="Electron" modified="2023-07-12T14:44:40.895Z" agent="Mozilla/5.0 (Windows NT 10.0; Win64; x64) AppleWebKit/537.36 (KHTML, like Gecko) draw.io/21.6.1 Chrome/112.0.5615.204 Electron/24.6.1 Safari/537.36" etag="gCb__DBh2Cn6Z9A2Z6gT" version="21.6.1" type="device">
  <diagram name="第 1 页" id="L2mrs4M0l3rT-VooI9Wk">
    <mxGraphModel dx="2026" dy="1171" grid="1" gridSize="10" guides="1" tooltips="1" connect="1" arrows="1" fold="1" page="1" pageScale="1" pageWidth="1169" pageHeight="827" math="0" shadow="0">
      <root>
        <mxCell id="0" />
        <mxCell id="1" parent="0" />
        <mxCell id="cc-jTQuXcxAPLhB0xe9L-78" value="" style="group" vertex="1" connectable="0" parent="1">
          <mxGeometry x="80" y="120" width="980" height="530" as="geometry" />
        </mxCell>
        <mxCell id="cc-jTQuXcxAPLhB0xe9L-74" value="" style="group" vertex="1" connectable="0" parent="cc-jTQuXcxAPLhB0xe9L-78">
          <mxGeometry x="30" y="60" width="920" height="440" as="geometry" />
        </mxCell>
        <mxCell id="cc-jTQuXcxAPLhB0xe9L-52" value="" style="rounded=1;whiteSpace=wrap;html=1;fillColor=none;" vertex="1" parent="cc-jTQuXcxAPLhB0xe9L-74">
          <mxGeometry x="510" width="410" height="350" as="geometry" />
        </mxCell>
        <mxCell id="cc-jTQuXcxAPLhB0xe9L-53" value="" style="rounded=0;whiteSpace=wrap;html=1;fillColor=none;" vertex="1" parent="cc-jTQuXcxAPLhB0xe9L-74">
          <mxGeometry x="530" y="230" width="300" height="60" as="geometry" />
        </mxCell>
        <mxCell id="cc-jTQuXcxAPLhB0xe9L-17" value="" style="rounded=0;whiteSpace=wrap;html=1;fillColor=none;" vertex="1" parent="cc-jTQuXcxAPLhB0xe9L-74">
          <mxGeometry x="90" y="230" width="300" height="60" as="geometry" />
        </mxCell>
        <mxCell id="cc-jTQuXcxAPLhB0xe9L-1" value="容器1" style="ellipse;whiteSpace=wrap;html=1;fontSize=18;" vertex="1" parent="cc-jTQuXcxAPLhB0xe9L-74">
          <mxGeometry x="20" y="20" width="140" height="60" as="geometry" />
        </mxCell>
        <mxCell id="cc-jTQuXcxAPLhB0xe9L-2" value="容器2" style="ellipse;whiteSpace=wrap;html=1;fontSize=18;" vertex="1" parent="cc-jTQuXcxAPLhB0xe9L-74">
          <mxGeometry x="240" y="20" width="140" height="60" as="geometry" />
        </mxCell>
        <mxCell id="cc-jTQuXcxAPLhB0xe9L-4" value="eth0&lt;br&gt;172.17.42.50" style="rounded=1;whiteSpace=wrap;html=1;" vertex="1" parent="cc-jTQuXcxAPLhB0xe9L-74">
          <mxGeometry x="40" y="70" width="100" height="40" as="geometry" />
        </mxCell>
        <mxCell id="cc-jTQuXcxAPLhB0xe9L-5" value="eth0&lt;br&gt;172.17.42.51" style="rounded=1;whiteSpace=wrap;html=1;" vertex="1" parent="cc-jTQuXcxAPLhB0xe9L-74">
          <mxGeometry x="260" y="70" width="100" height="40" as="geometry" />
        </mxCell>
        <mxCell id="cc-jTQuXcxAPLhB0xe9L-6" value="docker0&lt;br style=&quot;font-size: 18px;&quot;&gt;172.17.42.1/24" style="rounded=0;whiteSpace=wrap;html=1;fontSize=18;" vertex="1" parent="cc-jTQuXcxAPLhB0xe9L-74">
          <mxGeometry x="120" y="140" width="160" height="60" as="geometry" />
        </mxCell>
        <mxCell id="cc-jTQuXcxAPLhB0xe9L-7" value="" style="endArrow=none;html=1;rounded=0;entryX=0.5;entryY=1;entryDx=0;entryDy=0;exitX=0.25;exitY=0;exitDx=0;exitDy=0;" edge="1" parent="cc-jTQuXcxAPLhB0xe9L-74" source="cc-jTQuXcxAPLhB0xe9L-6" target="cc-jTQuXcxAPLhB0xe9L-4">
          <mxGeometry width="50" height="50" relative="1" as="geometry">
            <mxPoint x="40" y="180" as="sourcePoint" />
            <mxPoint x="90" y="130" as="targetPoint" />
            <Array as="points">
              <mxPoint x="160" y="120" />
              <mxPoint x="90" y="120" />
            </Array>
          </mxGeometry>
        </mxCell>
        <mxCell id="cc-jTQuXcxAPLhB0xe9L-8" value="" style="endArrow=none;html=1;rounded=0;entryX=0.5;entryY=1;entryDx=0;entryDy=0;exitX=0.75;exitY=0;exitDx=0;exitDy=0;" edge="1" parent="cc-jTQuXcxAPLhB0xe9L-74" source="cc-jTQuXcxAPLhB0xe9L-6" target="cc-jTQuXcxAPLhB0xe9L-5">
          <mxGeometry width="50" height="50" relative="1" as="geometry">
            <mxPoint x="290" y="170" as="sourcePoint" />
            <mxPoint x="340" y="120" as="targetPoint" />
            <Array as="points">
              <mxPoint x="240" y="120" />
              <mxPoint x="310" y="120" />
            </Array>
          </mxGeometry>
        </mxCell>
        <mxCell id="cc-jTQuXcxAPLhB0xe9L-9" value="br0" style="rounded=0;whiteSpace=wrap;html=1;fontSize=18;" vertex="1" parent="cc-jTQuXcxAPLhB0xe9L-74">
          <mxGeometry x="160" y="240" width="80" height="40" as="geometry" />
        </mxCell>
        <mxCell id="cc-jTQuXcxAPLhB0xe9L-10" value="gre0" style="rounded=0;whiteSpace=wrap;html=1;fontSize=18;" vertex="1" parent="cc-jTQuXcxAPLhB0xe9L-74">
          <mxGeometry x="300" y="240" width="80" height="40" as="geometry" />
        </mxCell>
        <mxCell id="cc-jTQuXcxAPLhB0xe9L-11" value="" style="endArrow=none;html=1;rounded=0;entryX=0.5;entryY=1;entryDx=0;entryDy=0;exitX=0.5;exitY=0;exitDx=0;exitDy=0;" edge="1" parent="cc-jTQuXcxAPLhB0xe9L-74" source="cc-jTQuXcxAPLhB0xe9L-9" target="cc-jTQuXcxAPLhB0xe9L-6">
          <mxGeometry width="50" height="50" relative="1" as="geometry">
            <mxPoint x="160" y="260" as="sourcePoint" />
            <mxPoint x="210" y="210" as="targetPoint" />
          </mxGeometry>
        </mxCell>
        <mxCell id="cc-jTQuXcxAPLhB0xe9L-13" value="OVS" style="text;html=1;strokeColor=none;fillColor=none;align=center;verticalAlign=middle;whiteSpace=wrap;rounded=0;fontSize=20;" vertex="1" parent="cc-jTQuXcxAPLhB0xe9L-74">
          <mxGeometry x="90" y="245" width="60" height="30" as="geometry" />
        </mxCell>
        <mxCell id="cc-jTQuXcxAPLhB0xe9L-14" value="" style="endArrow=none;html=1;rounded=0;entryX=0;entryY=0.5;entryDx=0;entryDy=0;exitX=1;exitY=0.5;exitDx=0;exitDy=0;" edge="1" parent="cc-jTQuXcxAPLhB0xe9L-74" source="cc-jTQuXcxAPLhB0xe9L-9" target="cc-jTQuXcxAPLhB0xe9L-10">
          <mxGeometry width="50" height="50" relative="1" as="geometry">
            <mxPoint x="240" y="310" as="sourcePoint" />
            <mxPoint x="290" y="260" as="targetPoint" />
          </mxGeometry>
        </mxCell>
        <mxCell id="cc-jTQuXcxAPLhB0xe9L-15" value="eth0&lt;br style=&quot;font-size: 18px;&quot;&gt;192.168.18.131" style="rounded=0;whiteSpace=wrap;html=1;fontSize=18;" vertex="1" parent="cc-jTQuXcxAPLhB0xe9L-74">
          <mxGeometry x="120" y="320" width="160" height="60" as="geometry" />
        </mxCell>
        <mxCell id="cc-jTQuXcxAPLhB0xe9L-16" value="" style="endArrow=none;html=1;rounded=0;entryX=0.5;entryY=1;entryDx=0;entryDy=0;exitX=0.5;exitY=0;exitDx=0;exitDy=0;" edge="1" parent="cc-jTQuXcxAPLhB0xe9L-74" source="cc-jTQuXcxAPLhB0xe9L-15" target="cc-jTQuXcxAPLhB0xe9L-9">
          <mxGeometry width="50" height="50" relative="1" as="geometry">
            <mxPoint x="200" y="360" as="sourcePoint" />
            <mxPoint x="210" y="330" as="targetPoint" />
          </mxGeometry>
        </mxCell>
        <mxCell id="cc-jTQuXcxAPLhB0xe9L-20" value="" style="rounded=1;whiteSpace=wrap;html=1;fillColor=none;" vertex="1" parent="cc-jTQuXcxAPLhB0xe9L-74">
          <mxGeometry width="410" height="350" as="geometry" />
        </mxCell>
        <mxCell id="cc-jTQuXcxAPLhB0xe9L-21" value="" style="rounded=0;whiteSpace=wrap;html=1;fillColor=none;" vertex="1" parent="cc-jTQuXcxAPLhB0xe9L-74">
          <mxGeometry x="90" y="230" width="300" height="60" as="geometry" />
        </mxCell>
        <mxCell id="cc-jTQuXcxAPLhB0xe9L-22" value="容器1" style="ellipse;whiteSpace=wrap;html=1;fontSize=18;" vertex="1" parent="cc-jTQuXcxAPLhB0xe9L-74">
          <mxGeometry x="20" y="20" width="140" height="60" as="geometry" />
        </mxCell>
        <mxCell id="cc-jTQuXcxAPLhB0xe9L-23" value="容器2" style="ellipse;whiteSpace=wrap;html=1;fontSize=18;" vertex="1" parent="cc-jTQuXcxAPLhB0xe9L-74">
          <mxGeometry x="240" y="20" width="140" height="60" as="geometry" />
        </mxCell>
        <mxCell id="cc-jTQuXcxAPLhB0xe9L-24" value="eth0&lt;br&gt;172.17.42.50" style="rounded=1;whiteSpace=wrap;html=1;" vertex="1" parent="cc-jTQuXcxAPLhB0xe9L-74">
          <mxGeometry x="40" y="70" width="100" height="40" as="geometry" />
        </mxCell>
        <mxCell id="cc-jTQuXcxAPLhB0xe9L-25" value="eth0&lt;br&gt;172.17.42.51" style="rounded=1;whiteSpace=wrap;html=1;" vertex="1" parent="cc-jTQuXcxAPLhB0xe9L-74">
          <mxGeometry x="260" y="70" width="100" height="40" as="geometry" />
        </mxCell>
        <mxCell id="cc-jTQuXcxAPLhB0xe9L-26" value="docker0&lt;br style=&quot;font-size: 18px;&quot;&gt;172.17.42.1/24" style="rounded=0;whiteSpace=wrap;html=1;fontSize=18;" vertex="1" parent="cc-jTQuXcxAPLhB0xe9L-74">
          <mxGeometry x="120" y="140" width="160" height="60" as="geometry" />
        </mxCell>
        <mxCell id="cc-jTQuXcxAPLhB0xe9L-27" value="" style="endArrow=none;html=1;rounded=0;entryX=0.5;entryY=1;entryDx=0;entryDy=0;exitX=0.25;exitY=0;exitDx=0;exitDy=0;" edge="1" parent="cc-jTQuXcxAPLhB0xe9L-74" source="cc-jTQuXcxAPLhB0xe9L-26" target="cc-jTQuXcxAPLhB0xe9L-24">
          <mxGeometry width="50" height="50" relative="1" as="geometry">
            <mxPoint x="40" y="180" as="sourcePoint" />
            <mxPoint x="90" y="130" as="targetPoint" />
            <Array as="points">
              <mxPoint x="160" y="120" />
              <mxPoint x="90" y="120" />
            </Array>
          </mxGeometry>
        </mxCell>
        <mxCell id="cc-jTQuXcxAPLhB0xe9L-28" value="" style="endArrow=none;html=1;rounded=0;entryX=0.5;entryY=1;entryDx=0;entryDy=0;exitX=0.75;exitY=0;exitDx=0;exitDy=0;" edge="1" parent="cc-jTQuXcxAPLhB0xe9L-74" source="cc-jTQuXcxAPLhB0xe9L-26" target="cc-jTQuXcxAPLhB0xe9L-25">
          <mxGeometry width="50" height="50" relative="1" as="geometry">
            <mxPoint x="290" y="170" as="sourcePoint" />
            <mxPoint x="340" y="120" as="targetPoint" />
            <Array as="points">
              <mxPoint x="240" y="120" />
              <mxPoint x="310" y="120" />
            </Array>
          </mxGeometry>
        </mxCell>
        <mxCell id="cc-jTQuXcxAPLhB0xe9L-29" value="br0" style="rounded=0;whiteSpace=wrap;html=1;fontSize=18;" vertex="1" parent="cc-jTQuXcxAPLhB0xe9L-74">
          <mxGeometry x="160" y="240" width="80" height="40" as="geometry" />
        </mxCell>
        <mxCell id="cc-jTQuXcxAPLhB0xe9L-30" value="gre0" style="rounded=0;whiteSpace=wrap;html=1;fontSize=18;" vertex="1" parent="cc-jTQuXcxAPLhB0xe9L-74">
          <mxGeometry x="300" y="240" width="80" height="40" as="geometry" />
        </mxCell>
        <mxCell id="cc-jTQuXcxAPLhB0xe9L-31" value="" style="endArrow=none;html=1;rounded=0;entryX=0.5;entryY=1;entryDx=0;entryDy=0;exitX=0.5;exitY=0;exitDx=0;exitDy=0;" edge="1" parent="cc-jTQuXcxAPLhB0xe9L-74" source="cc-jTQuXcxAPLhB0xe9L-29" target="cc-jTQuXcxAPLhB0xe9L-26">
          <mxGeometry width="50" height="50" relative="1" as="geometry">
            <mxPoint x="160" y="260" as="sourcePoint" />
            <mxPoint x="210" y="210" as="targetPoint" />
          </mxGeometry>
        </mxCell>
        <mxCell id="cc-jTQuXcxAPLhB0xe9L-32" value="OVS" style="text;html=1;strokeColor=none;fillColor=none;align=center;verticalAlign=middle;whiteSpace=wrap;rounded=0;fontSize=20;" vertex="1" parent="cc-jTQuXcxAPLhB0xe9L-74">
          <mxGeometry x="90" y="245" width="60" height="30" as="geometry" />
        </mxCell>
        <mxCell id="cc-jTQuXcxAPLhB0xe9L-33" value="" style="endArrow=none;html=1;rounded=0;entryX=0;entryY=0.5;entryDx=0;entryDy=0;exitX=1;exitY=0.5;exitDx=0;exitDy=0;" edge="1" parent="cc-jTQuXcxAPLhB0xe9L-74" source="cc-jTQuXcxAPLhB0xe9L-29" target="cc-jTQuXcxAPLhB0xe9L-30">
          <mxGeometry width="50" height="50" relative="1" as="geometry">
            <mxPoint x="240" y="310" as="sourcePoint" />
            <mxPoint x="290" y="260" as="targetPoint" />
          </mxGeometry>
        </mxCell>
        <mxCell id="cc-jTQuXcxAPLhB0xe9L-34" value="eth0&lt;br style=&quot;font-size: 18px;&quot;&gt;192.168.18.131" style="rounded=0;whiteSpace=wrap;html=1;fontSize=18;" vertex="1" parent="cc-jTQuXcxAPLhB0xe9L-74">
          <mxGeometry x="120" y="320" width="160" height="60" as="geometry" />
        </mxCell>
        <mxCell id="cc-jTQuXcxAPLhB0xe9L-35" value="" style="endArrow=none;html=1;rounded=0;entryX=0.5;entryY=1;entryDx=0;entryDy=0;exitX=0.5;exitY=0;exitDx=0;exitDy=0;" edge="1" parent="cc-jTQuXcxAPLhB0xe9L-74" source="cc-jTQuXcxAPLhB0xe9L-34" target="cc-jTQuXcxAPLhB0xe9L-29">
          <mxGeometry width="50" height="50" relative="1" as="geometry">
            <mxPoint x="200" y="360" as="sourcePoint" />
            <mxPoint x="210" y="330" as="targetPoint" />
          </mxGeometry>
        </mxCell>
        <mxCell id="cc-jTQuXcxAPLhB0xe9L-38" value="容器1" style="ellipse;whiteSpace=wrap;html=1;fontSize=18;" vertex="1" parent="cc-jTQuXcxAPLhB0xe9L-74">
          <mxGeometry x="540" y="20" width="140" height="60" as="geometry" />
        </mxCell>
        <mxCell id="cc-jTQuXcxAPLhB0xe9L-39" value="容器2" style="ellipse;whiteSpace=wrap;html=1;fontSize=18;" vertex="1" parent="cc-jTQuXcxAPLhB0xe9L-74">
          <mxGeometry x="760" y="20" width="140" height="60" as="geometry" />
        </mxCell>
        <mxCell id="cc-jTQuXcxAPLhB0xe9L-40" value="eth0&lt;br&gt;172.17.42.50" style="rounded=1;whiteSpace=wrap;html=1;" vertex="1" parent="cc-jTQuXcxAPLhB0xe9L-74">
          <mxGeometry x="560" y="70" width="100" height="40" as="geometry" />
        </mxCell>
        <mxCell id="cc-jTQuXcxAPLhB0xe9L-41" value="eth0&lt;br&gt;172.17.42.51" style="rounded=1;whiteSpace=wrap;html=1;" vertex="1" parent="cc-jTQuXcxAPLhB0xe9L-74">
          <mxGeometry x="780" y="70" width="100" height="40" as="geometry" />
        </mxCell>
        <mxCell id="cc-jTQuXcxAPLhB0xe9L-42" value="docker0&lt;br style=&quot;font-size: 18px;&quot;&gt;172.17.42.1/24" style="rounded=0;whiteSpace=wrap;html=1;fontSize=18;" vertex="1" parent="cc-jTQuXcxAPLhB0xe9L-74">
          <mxGeometry x="640" y="140" width="160" height="60" as="geometry" />
        </mxCell>
        <mxCell id="cc-jTQuXcxAPLhB0xe9L-43" value="" style="endArrow=none;html=1;rounded=0;entryX=0.5;entryY=1;entryDx=0;entryDy=0;exitX=0.25;exitY=0;exitDx=0;exitDy=0;" edge="1" parent="cc-jTQuXcxAPLhB0xe9L-74" source="cc-jTQuXcxAPLhB0xe9L-42" target="cc-jTQuXcxAPLhB0xe9L-40">
          <mxGeometry width="50" height="50" relative="1" as="geometry">
            <mxPoint x="560" y="180" as="sourcePoint" />
            <mxPoint x="610" y="130" as="targetPoint" />
            <Array as="points">
              <mxPoint x="680" y="120" />
              <mxPoint x="610" y="120" />
            </Array>
          </mxGeometry>
        </mxCell>
        <mxCell id="cc-jTQuXcxAPLhB0xe9L-44" value="" style="endArrow=none;html=1;rounded=0;entryX=0.5;entryY=1;entryDx=0;entryDy=0;exitX=0.75;exitY=0;exitDx=0;exitDy=0;" edge="1" parent="cc-jTQuXcxAPLhB0xe9L-74" source="cc-jTQuXcxAPLhB0xe9L-42" target="cc-jTQuXcxAPLhB0xe9L-41">
          <mxGeometry width="50" height="50" relative="1" as="geometry">
            <mxPoint x="810" y="170" as="sourcePoint" />
            <mxPoint x="860" y="120" as="targetPoint" />
            <Array as="points">
              <mxPoint x="760" y="120" />
              <mxPoint x="830" y="120" />
            </Array>
          </mxGeometry>
        </mxCell>
        <mxCell id="cc-jTQuXcxAPLhB0xe9L-45" value="br0" style="rounded=0;whiteSpace=wrap;html=1;fontSize=18;" vertex="1" parent="cc-jTQuXcxAPLhB0xe9L-74">
          <mxGeometry x="680" y="240" width="80" height="40" as="geometry" />
        </mxCell>
        <mxCell id="cc-jTQuXcxAPLhB0xe9L-46" value="gre0" style="rounded=0;whiteSpace=wrap;html=1;fontSize=18;" vertex="1" parent="cc-jTQuXcxAPLhB0xe9L-74">
          <mxGeometry x="540" y="240" width="80" height="40" as="geometry" />
        </mxCell>
        <mxCell id="cc-jTQuXcxAPLhB0xe9L-47" value="" style="endArrow=none;html=1;rounded=0;entryX=0.5;entryY=1;entryDx=0;entryDy=0;exitX=0.5;exitY=0;exitDx=0;exitDy=0;" edge="1" parent="cc-jTQuXcxAPLhB0xe9L-74" source="cc-jTQuXcxAPLhB0xe9L-45" target="cc-jTQuXcxAPLhB0xe9L-42">
          <mxGeometry width="50" height="50" relative="1" as="geometry">
            <mxPoint x="680" y="260" as="sourcePoint" />
            <mxPoint x="730" y="210" as="targetPoint" />
          </mxGeometry>
        </mxCell>
        <mxCell id="cc-jTQuXcxAPLhB0xe9L-50" value="eth0&lt;br style=&quot;font-size: 18px;&quot;&gt;192.168.18.131" style="rounded=0;whiteSpace=wrap;html=1;fontSize=18;" vertex="1" parent="cc-jTQuXcxAPLhB0xe9L-74">
          <mxGeometry x="640" y="320" width="160" height="60" as="geometry" />
        </mxCell>
        <mxCell id="cc-jTQuXcxAPLhB0xe9L-51" value="" style="endArrow=none;html=1;rounded=0;entryX=0.5;entryY=1;entryDx=0;entryDy=0;exitX=0.5;exitY=0;exitDx=0;exitDy=0;" edge="1" parent="cc-jTQuXcxAPLhB0xe9L-74" source="cc-jTQuXcxAPLhB0xe9L-50" target="cc-jTQuXcxAPLhB0xe9L-45">
          <mxGeometry width="50" height="50" relative="1" as="geometry">
            <mxPoint x="720" y="360" as="sourcePoint" />
            <mxPoint x="730" y="330" as="targetPoint" />
          </mxGeometry>
        </mxCell>
        <mxCell id="cc-jTQuXcxAPLhB0xe9L-54" value="容器1" style="ellipse;whiteSpace=wrap;html=1;fontSize=18;" vertex="1" parent="cc-jTQuXcxAPLhB0xe9L-74">
          <mxGeometry x="540" y="20" width="140" height="60" as="geometry" />
        </mxCell>
        <mxCell id="cc-jTQuXcxAPLhB0xe9L-55" value="容器2" style="ellipse;whiteSpace=wrap;html=1;fontSize=18;" vertex="1" parent="cc-jTQuXcxAPLhB0xe9L-74">
          <mxGeometry x="760" y="20" width="140" height="60" as="geometry" />
        </mxCell>
        <mxCell id="cc-jTQuXcxAPLhB0xe9L-56" value="eth0&lt;br&gt;172.17.43.70" style="rounded=1;whiteSpace=wrap;html=1;" vertex="1" parent="cc-jTQuXcxAPLhB0xe9L-74">
          <mxGeometry x="560" y="70" width="100" height="40" as="geometry" />
        </mxCell>
        <mxCell id="cc-jTQuXcxAPLhB0xe9L-57" value="eth0&lt;br&gt;172.17.43.71" style="rounded=1;whiteSpace=wrap;html=1;" vertex="1" parent="cc-jTQuXcxAPLhB0xe9L-74">
          <mxGeometry x="780" y="70" width="100" height="40" as="geometry" />
        </mxCell>
        <mxCell id="cc-jTQuXcxAPLhB0xe9L-58" value="docker0&lt;br style=&quot;font-size: 18px;&quot;&gt;172.17.43.1/24" style="rounded=0;whiteSpace=wrap;html=1;fontSize=18;" vertex="1" parent="cc-jTQuXcxAPLhB0xe9L-74">
          <mxGeometry x="640" y="140" width="160" height="60" as="geometry" />
        </mxCell>
        <mxCell id="cc-jTQuXcxAPLhB0xe9L-59" value="" style="endArrow=none;html=1;rounded=0;entryX=0.5;entryY=1;entryDx=0;entryDy=0;exitX=0.25;exitY=0;exitDx=0;exitDy=0;" edge="1" parent="cc-jTQuXcxAPLhB0xe9L-74" source="cc-jTQuXcxAPLhB0xe9L-58" target="cc-jTQuXcxAPLhB0xe9L-56">
          <mxGeometry width="50" height="50" relative="1" as="geometry">
            <mxPoint x="560" y="180" as="sourcePoint" />
            <mxPoint x="610" y="130" as="targetPoint" />
            <Array as="points">
              <mxPoint x="680" y="120" />
              <mxPoint x="610" y="120" />
            </Array>
          </mxGeometry>
        </mxCell>
        <mxCell id="cc-jTQuXcxAPLhB0xe9L-60" value="" style="endArrow=none;html=1;rounded=0;entryX=0.5;entryY=1;entryDx=0;entryDy=0;exitX=0.75;exitY=0;exitDx=0;exitDy=0;" edge="1" parent="cc-jTQuXcxAPLhB0xe9L-74" source="cc-jTQuXcxAPLhB0xe9L-58" target="cc-jTQuXcxAPLhB0xe9L-57">
          <mxGeometry width="50" height="50" relative="1" as="geometry">
            <mxPoint x="810" y="170" as="sourcePoint" />
            <mxPoint x="860" y="120" as="targetPoint" />
            <Array as="points">
              <mxPoint x="760" y="120" />
              <mxPoint x="830" y="120" />
            </Array>
          </mxGeometry>
        </mxCell>
        <mxCell id="cc-jTQuXcxAPLhB0xe9L-63" value="" style="endArrow=none;html=1;rounded=0;entryX=0.5;entryY=1;entryDx=0;entryDy=0;exitX=0.5;exitY=0;exitDx=0;exitDy=0;" edge="1" parent="cc-jTQuXcxAPLhB0xe9L-74" target="cc-jTQuXcxAPLhB0xe9L-58">
          <mxGeometry width="50" height="50" relative="1" as="geometry">
            <mxPoint x="720" y="240" as="sourcePoint" />
            <mxPoint x="730" y="210" as="targetPoint" />
          </mxGeometry>
        </mxCell>
        <mxCell id="cc-jTQuXcxAPLhB0xe9L-64" value="OVS" style="text;html=1;strokeColor=none;fillColor=none;align=center;verticalAlign=middle;whiteSpace=wrap;rounded=0;fontSize=20;" vertex="1" parent="cc-jTQuXcxAPLhB0xe9L-74">
          <mxGeometry x="770" y="245" width="60" height="30" as="geometry" />
        </mxCell>
        <mxCell id="cc-jTQuXcxAPLhB0xe9L-66" value="eth0&lt;br style=&quot;font-size: 18px;&quot;&gt;192.168.18.128" style="rounded=0;whiteSpace=wrap;html=1;fontSize=18;" vertex="1" parent="cc-jTQuXcxAPLhB0xe9L-74">
          <mxGeometry x="640" y="320" width="160" height="60" as="geometry" />
        </mxCell>
        <mxCell id="cc-jTQuXcxAPLhB0xe9L-67" value="" style="endArrow=none;html=1;rounded=0;entryX=0.5;entryY=1;entryDx=0;entryDy=0;exitX=0.5;exitY=0;exitDx=0;exitDy=0;" edge="1" parent="cc-jTQuXcxAPLhB0xe9L-74" source="cc-jTQuXcxAPLhB0xe9L-66">
          <mxGeometry width="50" height="50" relative="1" as="geometry">
            <mxPoint x="720" y="360" as="sourcePoint" />
            <mxPoint x="720" y="280" as="targetPoint" />
          </mxGeometry>
        </mxCell>
        <mxCell id="cc-jTQuXcxAPLhB0xe9L-68" value="" style="endArrow=none;html=1;rounded=0;exitX=1;exitY=0.5;exitDx=0;exitDy=0;entryX=0;entryY=0.5;entryDx=0;entryDy=0;" edge="1" parent="cc-jTQuXcxAPLhB0xe9L-74" source="cc-jTQuXcxAPLhB0xe9L-46" target="cc-jTQuXcxAPLhB0xe9L-45">
          <mxGeometry width="50" height="50" relative="1" as="geometry">
            <mxPoint x="620" y="310" as="sourcePoint" />
            <mxPoint x="670" y="260" as="targetPoint" />
          </mxGeometry>
        </mxCell>
        <mxCell id="cc-jTQuXcxAPLhB0xe9L-69" value="" style="endArrow=none;html=1;rounded=0;exitX=1;exitY=0.5;exitDx=0;exitDy=0;entryX=0;entryY=0.5;entryDx=0;entryDy=0;strokeWidth=2;dashed=1;dashPattern=8 8;" edge="1" parent="cc-jTQuXcxAPLhB0xe9L-74" source="cc-jTQuXcxAPLhB0xe9L-30" target="cc-jTQuXcxAPLhB0xe9L-46">
          <mxGeometry width="50" height="50" relative="1" as="geometry">
            <mxPoint x="430" y="325" as="sourcePoint" />
            <mxPoint x="480" y="275" as="targetPoint" />
          </mxGeometry>
        </mxCell>
        <mxCell id="cc-jTQuXcxAPLhB0xe9L-70" value="GRE" style="text;html=1;strokeColor=none;fillColor=none;align=center;verticalAlign=middle;whiteSpace=wrap;rounded=0;fontSize=18;" vertex="1" parent="cc-jTQuXcxAPLhB0xe9L-74">
          <mxGeometry x="430" y="230" width="60" height="30" as="geometry" />
        </mxCell>
        <mxCell id="cc-jTQuXcxAPLhB0xe9L-71" value="隧道" style="text;html=1;strokeColor=none;fillColor=none;align=center;verticalAlign=middle;whiteSpace=wrap;rounded=0;fontSize=18;" vertex="1" parent="cc-jTQuXcxAPLhB0xe9L-74">
          <mxGeometry x="430" y="260" width="60" height="30" as="geometry" />
        </mxCell>
        <mxCell id="cc-jTQuXcxAPLhB0xe9L-72" value="" style="endArrow=classic;html=1;rounded=0;exitX=0.5;exitY=1;exitDx=0;exitDy=0;entryX=0.5;entryY=1;entryDx=0;entryDy=0;" edge="1" parent="cc-jTQuXcxAPLhB0xe9L-74" source="cc-jTQuXcxAPLhB0xe9L-34" target="cc-jTQuXcxAPLhB0xe9L-66">
          <mxGeometry width="50" height="50" relative="1" as="geometry">
            <mxPoint x="300" y="440" as="sourcePoint" />
            <mxPoint x="350" y="390" as="targetPoint" />
            <Array as="points">
              <mxPoint x="200" y="440" />
              <mxPoint x="720" y="440" />
            </Array>
          </mxGeometry>
        </mxCell>
        <mxCell id="cc-jTQuXcxAPLhB0xe9L-73" value="ping 172.17.43.71" style="text;html=1;strokeColor=none;fillColor=none;align=center;verticalAlign=middle;whiteSpace=wrap;rounded=0;fontSize=18;" vertex="1" parent="cc-jTQuXcxAPLhB0xe9L-74">
          <mxGeometry x="200" y="410" width="190" height="30" as="geometry" />
        </mxCell>
        <mxCell id="cc-jTQuXcxAPLhB0xe9L-75" value="Node1" style="text;html=1;strokeColor=none;fillColor=none;align=center;verticalAlign=middle;whiteSpace=wrap;rounded=0;fontSize=20;" vertex="1" parent="cc-jTQuXcxAPLhB0xe9L-78">
          <mxGeometry x="210" y="20" width="60" height="30" as="geometry" />
        </mxCell>
        <mxCell id="cc-jTQuXcxAPLhB0xe9L-76" value="Node2" style="text;html=1;strokeColor=none;fillColor=none;align=center;verticalAlign=middle;whiteSpace=wrap;rounded=0;fontSize=20;" vertex="1" parent="cc-jTQuXcxAPLhB0xe9L-78">
          <mxGeometry x="730" y="20" width="60" height="30" as="geometry" />
        </mxCell>
        <mxCell id="cc-jTQuXcxAPLhB0xe9L-77" value="" style="rounded=0;whiteSpace=wrap;html=1;fillColor=none;" vertex="1" parent="cc-jTQuXcxAPLhB0xe9L-78">
          <mxGeometry width="980" height="530" as="geometry" />
        </mxCell>
      </root>
    </mxGraphModel>
  </diagram>
</mxfile>
